<svg id="Capa_1" enable-background="new 0 0 512 512" height="100" viewBox="0 0 512 512" width="100" xmlns="http://www.w3.org/2000/svg"><g><path d="m256 105c-49.626 0-90 40.374-90 90v45c0 8.284 6.716 15 15 15h150c8.284 0 15-6.716 15-15v-45c0-49.626-40.374-90-90-90z" fill="#fc6581"/><path d="m346 195v45c0 8.28-6.72 15-15 15h-75v-150c49.73 0 90 40.469 90 90z" fill="#f4425c"/><circle cx="256" cy="60" fill="#fbcdbe" r="60"/><path d="m316 60c0 33.073-26.919 60-60 60v-120c33.08 0 60 26.92 60 60z" fill="#fdbbab"/><path d="" style="fill:none;stroke:#000;stroke-width:30;stroke-linecap:round;stroke-linejoin:round;stroke-miterlimit:10"/><path d="m226.206 360.33-47.604-47.1c-21.559-21.378-54.788-23.828-79.022-7.393-5.18 3.513-5.84 10.902-1.415 15.327l59.695 59.695c5.219 5.219 4.938 13.762-.612 18.627-5.074 4.447-12.732 4.179-17.482-.613l-63.766-64.335v-147.038c0-16.845-13.655-30.5-30.5-30.5-16.845 0-30.5 13.655-30.5 30.5v144.233c0 18.726 7.503 36.671 20.831 49.824l75.442 74.449v40.994c0 8.284 6.716 15 15 15h99.727c8.284 0 15-6.716 15-15v-101.166c0-13.334-5.326-26.115-14.794-35.504z" fill="#ffa58d"/><path d="m285.794 360.33 47.604-47.1c21.559-21.378 54.788-23.828 79.022-7.393 5.18 3.513 5.84 10.902 1.415 15.327l-59.695 59.695c-5.219 5.219-4.938 13.762.612 18.627 5.074 4.447 12.732 4.179 17.482-.613l63.766-64.335v-147.038c0-16.845 13.655-30.5 30.5-30.5 16.845 0 30.5 13.655 30.5 30.5v144.233c0 18.726-7.503 36.671-20.831 49.824l-75.442 74.449v40.994c0 8.284-6.716 15-15 15h-99.727c-8.284 0-15-6.716-15-15v-101.166c0-13.334 5.326-26.115 14.794-35.504z" fill="#f59280"/></g></svg>