<svg id="Capa_1" enable-background="new 0 0 512 512" height="512" viewBox="0 0 512 512" width="512" xmlns="http://www.w3.org/2000/svg"><g id="XMLID_2726_"><path id="XMLID_2736_" d="m322.667 255.496-133.334-72.664-133.333 72.664v246.504l133.333-72.665 133.334 72.665 133.333-72.665v-246.503z" fill="#b8ecbc"/><path id="XMLID_2733_" d="m113.545 152.455c0-78.762 63.92-142.595 142.714-142.455 78.678.14 142.742 64.794 142.192 143.47-.236 33.711-12.186 64.634-31.976 88.915h.01l-110.485 141.615-109.958-140.872h.083c-20.352-24.633-32.58-56.225-32.58-90.673z" fill="#fff"/><path id="XMLID_2729_" d="m324.132 103.659c-18.814-18.814-49.318-18.814-68.132 0-18.814-18.814-49.318-18.814-68.132 0-18.814 18.814-18.814 49.318 0 68.132l68.132 68.133 68.132-68.132c18.814-18.815 18.814-49.318 0-68.133z" fill="#ff9eb1"/><path id="XMLID_873_" d="m461.107 174.233c-3.036-1.802-6.794-1.871-9.892-.183l-51.02 27.805c5.303-15.475 8.141-31.804 8.256-48.315.284-40.741-15.447-79.206-44.296-108.309-28.841-29.095-67.153-45.158-107.879-45.231-.095 0-.185 0-.279 0-40.671 0-78.913 15.818-107.702 44.557-28.857 28.806-44.75 67.125-44.75 107.898 0 20.446 4.147 40.59 11.987 59.209l-64.317 35.052c-3.215 1.752-5.215 5.12-5.215 8.781v246.503c0 3.529 1.859 6.796 4.894 8.598 1.572.934 3.338 1.402 5.106 1.402 1.646 0 3.292-.405 4.785-1.219l128.548-70.057 128.549 70.057c2.982 1.626 6.588 1.626 9.57 0l133.333-72.665c3.215-1.752 5.215-5.12 5.215-8.781v-246.503c0-3.529-1.859-6.797-4.893-8.599zm-298.683-115.522c25.015-24.97 58.236-38.711 93.575-38.711h.242c35.363.063 68.644 14.024 93.71 39.312 25.074 25.295 38.747 58.71 38.5 94.089-.213 30.48-10.492 59.066-29.728 82.667-.128.157-102.726 131.677-102.726 131.677s-101.86-130.619-102.165-130.987c-19.531-23.642-30.288-53.582-30.288-84.304.001-35.424 13.809-68.716 38.88-93.743zm150.243 426.45-113.334-61.765v-95.743l48.784 62.5c1.896 2.428 4.804 3.848 7.884 3.847s5.988-1.42 7.884-3.849l48.782-62.526zm-246.667-223.725 58.486-31.874c3.883 6.631 8.274 12.985 13.156 18.993.161.248 41.691 53.476 41.691 53.476v121.366l-113.333 61.765zm380 161.96-113.333 61.765v-183.171s41.78-53.553 41.817-53.603c4.097-5.056 7.85-10.36 11.245-15.87l60.271-32.847z" fill="#5cd0b3"/></g></svg>