<?xml version="1.0" encoding="iso-8859-1"?>
<!-- Generator: Adobe Illustrator 19.0.0, SVG Export Plug-In . SVG Version: 6.00 Build 0)  -->
<svg version="1.1" id="Capa_1" xmlns="http://www.w3.org/2000/svg" xmlns:xlink="http://www.w3.org/1999/xlink" x="0px" y="0px"
	 viewBox="0 0 512.001 512.001" style="enable-background:new 0 0 512.001 512.001;" xml:space="preserve">
<path style="fill:#D8AD8F;" d="M492.908,412.02l-80.887,80.887l-32.9-32.91c-1.681-1.67-3.466-3.195-5.356-4.573
	c-8.582-6.317-19.159-9.522-29.945-8.938c-26.197,1.42-69.945,4.552-87.987,10.285c-3.957,1.263-10.556-9.313-10.556-9.313
	c-3.101-10.88,1.618-22.48,11.433-28.097l45.272-18.335L177.307,276.35c-6.494-6.494-6.494-17.019,0-23.524l1.242-1.242
	c6.494-6.494,17.019-6.494,23.513,0l4.249,4.249c-6.348-6.348-6.348-16.643,0-22.991l1.775-1.775
	c6.348-6.348,16.643-6.338,22.991,0.01l3.352,3.352c-6.233-6.233-6.233-16.34,0-22.574l2.193-2.193
	c6.233-6.233,16.34-6.233,22.574,0l6.828,6.828c-5.993-5.983-5.993-15.703,0-21.686l3.07-3.07c3.205-3.216,7.486-4.698,11.684-4.469
	c3.644,0.198,7.225,1.692,10.003,4.469L437.1,338.046c6.014,6.014,9.648,14.001,10.243,22.49c0.146,2.057,0.647,4.041,1.493,5.878
	c0.835,1.848,2.005,3.54,3.456,4.991L492.908,412.02z"/>
<g>
	<path style="fill:#C19476;" d="M340.416,279.931c0.01,8.29-3.226,16.079-9.084,21.937l-64.254,64.254l-89.772-89.772
		c-6.494-6.494-6.494-17.019,0-23.524l1.242-1.242c6.494-6.494,17.019-6.494,23.513,0l4.249,4.249
		c-6.348-6.348-6.348-16.643,0-22.991l1.775-1.775c6.348-6.348,16.643-6.338,22.991,0.01l3.352,3.352
		c-6.233-6.233-6.233-16.34,0-22.574l2.193-2.193c6.233-6.233,16.34-6.233,22.574,0l6.828,6.828c-5.993-5.983-5.993-15.703,0-21.686
		l3.07-3.07c3.205-3.216,7.486-4.698,11.684-4.469c0.052,0.491,0.094,0.982,0.115,1.472c3.435,1.566,6.588,3.748,9.345,6.494
		l1.775,1.775c0.345,0.355,0.7,0.731,1.034,1.107c4.845,5.325,7.58,11.83,8.196,18.481c3.686,1.566,7.069,3.842,9.982,6.755
		l2.276,2.287c0.188,0.188,0.376,0.386,0.553,0.574c6.442,6.828,9.303,15.662,8.593,24.265c2.026,1.263,3.915,2.756,5.638,4.479
		l3.059,3.059C337.19,263.862,340.416,271.651,340.416,279.931z"/>
	<path style="fill:#C19476;" d="M276.103,206.415l146.315,146.315c6.015,6.015,9.655,14.001,10.243,22.488
		c0.147,2.05,0.652,4.037,1.496,5.882c0.834,1.845,2.002,3.532,3.454,4.984l40.62,40.62l14.68-14.68l-40.62-40.62
		c-1.452-1.452-2.62-3.139-3.454-4.984c-0.844-1.844-1.349-3.831-1.496-5.882c-0.589-8.487-4.229-16.474-10.243-22.488
		L290.783,191.734c-5.99-5.99-15.703-5.99-21.693,0l-3.066,3.066c-2.137,2.137-3.507,4.748-4.119,7.495
		C266.856,201.191,272.249,202.562,276.103,206.415z"/>
	<path style="fill:#C19476;" d="M373.77,455.419l81.269-81.269l37.873,37.873l-80.886,80.886l-32.908-32.908
		C377.443,458.329,375.658,456.798,373.77,455.419z"/>
</g>
<path style="fill:#2796AF;" d="M392.26,473.624l81.362-81.362c3.262-3.262,8.551-3.262,11.813,0l24.117,24.117
	c3.262,3.262,3.262,8.551,0,11.813l-81.362,81.362c-3.262,3.262-8.551,3.262-11.813,0l-24.117-24.117
	C388.998,482.174,388.998,476.886,392.26,473.624z"/>
<path style="fill:#0E7889;" d="M460.044,405.84l13.579-13.579c3.262-3.262,8.551-3.262,11.813,0l24.117,24.117
	c3.262,3.262,3.262,8.551,0,11.813l-13.579,13.579L460.044,405.84z"/>
<g>
	<path style="fill:#C19476;" d="M300.313,357.665c-2.004,0-4.008-0.765-5.537-2.293l-94-94c-3.058-3.059-3.058-8.016,0-11.075
		c3.058-3.057,8.016-3.057,11.074,0l94,94c3.058,3.059,3.058,8.016,0,11.075C304.322,356.9,302.317,357.665,300.313,357.665z"/>
	<path style="fill:#C19476;" d="M333.77,341.597c-2.004,0-4.008-0.765-5.537-2.293l-99.338-99.338
		c-3.058-3.059-3.058-8.016,0-11.075c3.058-3.057,8.016-3.057,11.074,0l99.338,99.338c3.058,3.059,3.058,8.016,0,11.075
		C337.779,340.832,335.774,341.597,333.77,341.597z"/>
	<path style="fill:#C19476;" d="M349.837,308.141c-2.004,0-4.008-0.765-5.537-2.293l-83.815-83.814
		c-3.058-3.059-3.058-8.016,0-11.075c3.058-3.057,8.016-3.057,11.074,0l83.815,83.814c3.058,3.059,3.058,8.016,0,11.075
		C353.845,307.375,351.841,308.141,349.837,308.141z"/>
</g>
<path style="fill:#F9E8D4;" d="M334.694,259.174l-1.211,1.211l-0.031,0.031c-6.494,6.494-17.019,6.494-23.513,0l-4.249-4.25
	c6.348,6.348,6.348,16.643,0,22.991l-1.775,1.775c-6.348,6.348-16.643,6.338-22.991-0.01l-3.352-3.352
	c6.233,6.233,6.233,16.34,0,22.574l-2.193,2.193c-6.233,6.233-16.34,6.233-22.574,0l-6.828-6.828c5.993,5.983,5.993,15.703,0,21.686
	l-3.07,3.07c-5.983,5.993-15.703,5.993-21.686,0l-75.343-75.343l-70.978-70.968c-6.014-6.014-9.648-14.001-10.243-22.49
	c-0.146-2.057-0.647-4.041-1.493-5.878c-0.835-1.848-2.005-3.54-3.456-4.991L19.094,99.981l80.887-80.887l32.9,32.91
	c1.681,1.671,3.466,3.195,5.356,4.573c8.583,6.317,19.159,9.522,29.945,8.938c26.197-1.42,69.945-4.552,87.987-10.285
	c3.957-1.263,10.556,9.313,10.556,9.313c3.101,10.88-1.618,22.479-11.433,28.097l-45.272,18.334l47.361,47.361l21.968,21.968
	l55.348,55.348C341.188,242.146,341.188,252.67,334.694,259.174z"/>
<g>
	<path style="fill:#EFCDB1;" d="M333.483,260.385l-0.031,0.031c-6.494,6.494-17.019,6.494-23.513,0l-4.249-4.25
		c6.348,6.348,6.348,16.643,0,22.991l-1.775,1.775c-6.348,6.348-16.643,6.338-22.991-0.01l-3.352-3.352
		c6.233,6.233,6.233,16.34,0,22.574l-2.193,2.193c-6.233,6.233-16.34,6.233-22.574,0l-6.828-6.828
		c5.993,5.983,5.993,15.703,0,21.686l-3.07,3.07c-5.983,5.993-15.703,5.993-21.686,0l-75.343-75.343l78.694-78.694
		c6.108-6.098,14.21-9.46,22.835-9.46c3.435,0,6.787,0.533,9.971,1.566c4.792,1.545,9.188,4.218,12.863,7.883l1.253,1.263
		c0.365,0.366,0.919,0.929,1.514,1.618c2.924,3.362,5.043,7.183,6.338,11.203c0.898,2.746,1.41,5.586,1.545,8.436
		c3.435,1.566,6.588,3.748,9.345,6.494l1.775,1.775c0.345,0.355,0.7,0.731,1.034,1.107c4.845,5.325,7.58,11.83,8.196,18.481
		c3.686,1.566,7.069,3.842,9.982,6.755l2.276,2.287c0.188,0.188,0.376,0.386,0.553,0.574c6.442,6.828,9.303,15.662,8.593,24.265
		c2.026,1.263,3.915,2.756,5.638,4.479l3.059,3.059C332.105,258.777,332.815,259.56,333.483,260.385z"/>
	<path style="fill:#EFCDB1;" d="M235.898,305.586L89.584,159.271c-6.015-6.015-9.655-14.001-10.243-22.488
		c-0.147-2.05-0.652-4.037-1.496-5.882c-0.834-1.845-2.002-3.532-3.454-4.984l-40.62-40.62l-14.68,14.68l40.62,40.62
		c1.452,1.452,2.62,3.139,3.454,4.984c0.844,1.844,1.349,3.831,1.496,5.882c0.589,8.487,4.229,16.474,10.243,22.488l146.315,146.315
		c5.99,5.99,15.703,5.99,21.693,0l3.066-3.066c2.137-2.137,3.507-4.748,4.119-7.495
		C245.145,310.809,239.752,309.439,235.898,305.586z"/>
	<path style="fill:#EFCDB1;" d="M138.232,56.582l-81.269,81.269L19.09,99.978l80.886-80.886l32.908,32.908
		C134.558,53.672,136.344,55.202,138.232,56.582z"/>
</g>
<path style="fill:#FB4239;" d="M119.741,38.376l-81.362,81.362c-3.262,3.262-8.551,3.262-11.813,0L2.448,95.623
	c-3.262-3.262-3.262-8.551,0-11.813L83.811,2.447c3.262-3.262,8.551-3.262,11.813,0l24.117,24.117
	C123.003,29.826,123.003,35.114,119.741,38.376z"/>
<path style="fill:#C4000A;" d="M51.957,106.161L38.377,119.74c-3.262,3.262-8.551,3.262-11.813,0L2.448,95.623
	c-3.262-3.262-3.262-8.551,0-11.813l13.579-13.579L51.957,106.161z"/>
<g>
	<path style="fill:#EFCDB1;" d="M305.688,263.997c-2.004,0-4.008-0.765-5.537-2.293l-94-94c-3.058-3.059-3.058-8.016,0-11.075
		c3.058-3.057,8.016-3.057,11.074,0l94,94c3.058,3.059,3.058,8.016,0,11.075C309.695,263.232,307.691,263.997,305.688,263.997z"/>
	<path style="fill:#EFCDB1;" d="M277.568,285.402c-2.004,0-4.008-0.765-5.537-2.293l-99.338-99.338
		c-3.058-3.059-3.058-8.016,0-11.075c3.058-3.057,8.016-3.057,11.074,0l99.338,99.338c3.058,3.059,3.058,8.016,0,11.075
		C281.576,284.637,279.572,285.402,277.568,285.402z"/>
	<path style="fill:#EFCDB1;" d="M245.979,303.335c-2.004,0-4.008-0.765-5.537-2.293l-83.815-83.814
		c-3.058-3.059-3.058-8.016,0-11.075c3.058-3.057,8.016-3.057,11.074,0l83.815,83.814c3.058,3.059,3.058,8.016,0,11.075
		C249.986,302.572,247.982,303.335,245.979,303.335z"/>
	<path style="fill:#EFCDB1;" d="M455.424,138.236c-6.317,8.583-9.522,19.159-8.938,29.945c1.42,26.197,4.552,69.945,10.284,87.987
		c1.263,3.957-9.313,10.556-9.313,10.556c-10.88,3.101-22.48-1.618-28.097-11.433l-18.334-45.272L276.35,334.694
		c-6.494,6.494-17.019,6.494-23.524,0l-1.242-1.243c-6.494-6.494-6.494-17.019,0-23.513l4.25-4.249
		c-6.348,6.348-16.643,6.348-22.991,0l-1.775-1.775c-6.348-6.348-6.338-16.643,0.01-22.991l3.352-3.352
		c-6.233,6.233-16.34,6.233-22.574,0l-2.193-2.192c-6.233-6.233-6.233-16.34,0-22.574l6.828-6.828
		c-5.983,5.993-15.703,5.993-21.686,0l-3.07-3.07c-5.993-5.983-5.993-15.703,0-21.686l63.502-63.502l82.809-82.819
		c6.014-6.014,14.001-9.648,22.49-10.243c2.057-0.146,4.041-0.647,5.878-1.493c1.848-0.835,3.54-2.005,4.991-3.456l40.616-40.616
		l80.887,80.887l-32.91,32.9C458.327,134.561,456.802,136.346,455.424,138.236z"/>
</g>
<g>
	<path style="fill:#D8AD8F;" d="M339.319,271.724l-62.97,62.97c-6.494,6.494-17.019,6.494-23.524,0l-1.242-1.243
		c-6.494-6.494-6.494-17.019,0-23.513l4.25-4.249c-6.348,6.348-16.643,6.348-22.991,0l-1.775-1.775
		c-6.348-6.348-6.338-16.643,0.01-22.991l3.352-3.352c-6.233,6.233-16.34,6.233-22.574,0l-2.193-2.192
		c-6.233-6.233-6.233-16.34,0-22.574l6.828-6.828c-5.983,5.993-15.703,5.993-21.686,0l-3.07-3.07
		c-5.993-5.983-5.993-15.703,0-21.686l63.502-63.502c5.628,1.399,10.796,4.302,15.004,8.499l1.253,1.263
		c0.365,0.366,0.919,0.929,1.514,1.618c4.928,5.659,7.538,12.613,7.883,19.64c3.435,1.566,6.588,3.748,9.345,6.494l1.775,1.775
		c0.345,0.355,0.7,0.731,1.034,1.107c4.845,5.325,7.58,11.83,8.196,18.481c3.686,1.566,7.069,3.842,9.982,6.755l2.276,2.287
		c0.188,0.188,0.376,0.386,0.553,0.574c6.442,6.828,9.303,15.662,8.593,24.265c2.026,1.263,3.915,2.756,5.638,4.479l3.059,3.059
		C335.206,261.878,337.921,266.587,339.319,271.724z"/>
	<path style="fill:#D8AD8F;" d="M455.419,138.232L374.15,56.963l37.873-37.873l80.886,80.886l-32.908,32.908
		C458.329,134.558,456.798,136.344,455.419,138.232z"/>
	<path style="fill:#D8AD8F;" d="M206.415,235.898L352.729,89.584c6.015-6.015,14.001-9.655,22.488-10.243
		c2.05-0.147,4.037-0.652,5.882-1.496c1.845-0.834,3.532-2.002,4.984-3.454l40.62-40.62l-14.68-14.68l-40.62,40.62
		c-1.452,1.452-3.139,2.62-4.984,3.454c-1.844,0.844-3.831,1.349-5.882,1.496c-8.487,0.589-16.474,4.229-22.488,10.243
		L191.734,221.217c-5.99,5.99-5.99,15.703,0,21.693l3.066,3.066c2.137,2.137,4.748,3.507,7.495,4.119
		C201.191,245.145,202.562,239.752,206.415,235.898z"/>
</g>
<path style="fill:#FEC007;" d="M473.624,119.741l-81.362-81.362c-3.262-3.262-3.262-8.551,0-11.813l24.117-24.117
	c3.262-3.262,8.551-3.262,11.813,0l81.362,81.362c3.262,3.262,3.262,8.551,0,11.813l-24.117,24.117
	C482.174,123.003,476.886,123.003,473.624,119.741z"/>
<path style="fill:#FE9700;" d="M405.84,51.957l-13.579-13.579c-3.262-3.262-3.262-8.551,0-11.813l24.117-24.117
	c3.262-3.262,8.551-3.262,11.813,0l13.579,13.579L405.84,51.957z"/>
<g>
	<path style="fill:#D8AD8F;" d="M255.835,313.52c-2.004,0-4.008-0.765-5.537-2.293c-3.058-3.059-3.058-8.016,0-11.075l94-94
		c3.058-3.057,8.016-3.057,11.074,0c3.058,3.059,3.058,8.016,0,11.075l-94,94C259.842,312.754,257.839,313.52,255.835,313.52z"/>
	<path style="fill:#D8AD8F;" d="M234.43,285.399c-2.004,0-4.008-0.765-5.537-2.293c-3.058-3.059-3.058-8.016,0-11.075l99.338-99.339
		c3.058-3.057,8.016-3.057,11.074,0c3.058,3.059,3.058,8.016,0,11.075l-99.338,99.339
		C238.438,284.634,236.434,285.399,234.43,285.399z"/>
	<path style="fill:#D8AD8F;" d="M216.495,253.809c-2.004,0-4.008-0.765-5.537-2.293c-3.058-3.059-3.058-8.016,0-11.075
		l83.814-83.814c3.058-3.058,8.017-3.056,11.074,0c3.058,3.059,3.058,8.016,0,11.075l-83.814,83.814
		C220.504,253.044,218.499,253.809,216.495,253.809z"/>
</g>
<path style="fill:#C19476;" d="M320.266,290.779L173.954,437.1c-6.014,6.014-14.001,9.648-22.49,10.243
	c-2.057,0.146-4.041,0.647-5.878,1.493c-1.848,0.835-3.54,2.005-4.991,3.456l-40.615,40.615L19.094,412.02l32.91-32.9
	c1.671-1.681,3.195-3.466,4.573-5.356c6.317-8.582,9.522-19.159,8.938-29.945c-1.42-26.197-4.552-69.945-10.284-87.987
	c-1.263-3.957,9.313-10.556,9.313-10.556c10.88-3.101,22.48,1.618,28.097,11.433l18.334,45.272L235.65,177.307
	c6.494-6.494,17.019-6.494,23.524,0l1.242,1.243c0.261,0.261,0.512,0.522,0.741,0.793c5.743,6.536,5.492,16.486-0.741,22.72
	l-4.25,4.249c0.47-0.47,0.961-0.898,1.462-1.295c6.379-5.022,15.651-4.583,21.529,1.295l1.775,1.775
	c0.167,0.167,0.324,0.334,0.47,0.501c5.878,6.379,5.701,16.309-0.48,22.49l-3.352,3.352c0.418-0.418,0.856-0.804,1.305-1.169
	c6.265-5.033,15.453-4.646,21.268,1.169l2.193,2.193c0.094,0.094,0.188,0.188,0.271,0.282c5.962,6.254,5.868,16.152-0.271,22.292
	l-6.828,6.828c0.397-0.397,0.804-0.762,1.232-1.117c6.024-4.845,14.868-4.479,20.454,1.117l3.07,3.07
	C326.258,275.076,326.258,284.796,320.266,290.779z"/>
<g>
	<path style="fill:#AA7F63;" d="M305.586,276.103L159.271,422.417c-6.015,6.015-14.001,9.655-22.488,10.243
		c-2.05,0.147-4.037,0.652-5.882,1.496c-1.845,0.834-3.532,2.002-4.984,3.454l-40.62,40.62l14.68,14.68l40.62-40.62
		c1.452-1.452,3.139-2.62,4.984-3.454c1.844-0.844,3.831-1.349,5.882-1.496c8.487-0.589,16.474-4.229,22.488-10.243l146.315-146.315
		c5.99-5.99,5.99-15.703,0-21.693l-3.066-3.066c-2.137-2.137-4.748-3.507-7.495-4.119
		C310.809,266.856,309.439,272.249,305.586,276.103z"/>
	<path style="fill:#AA7F63;" d="M56.582,373.77l81.269,81.269L99.978,492.91l-80.886-80.886l32.908-32.908
		C53.672,377.443,55.202,375.658,56.582,373.77z"/>
</g>
<path style="fill:#B9F268;" d="M38.376,392.26l81.362,81.362c3.262,3.262,3.262,8.551,0,11.813l-24.117,24.117
	c-3.262,3.262-8.551,3.262-11.813,0L2.447,428.19c-3.262-3.262-3.262-8.551,0-11.813l24.117-24.117
	C29.826,388.998,35.114,388.998,38.376,392.26z"/>
<path style="fill:#8BCC3F;" d="M106.161,460.044l13.579,13.579c3.262,3.262,3.262,8.551,0,11.813l-24.117,24.117
	c-3.262,3.262-8.551,3.262-11.813,0l-13.579-13.58L106.161,460.044z"/>
<g>
	<path style="fill:#AA7F63;" d="M260.417,202.063l-4.25,4.249c0.47-0.47-93.917,94.084-93.917,94.084
		c-1.524,1.535-3.529,2.297-5.534,2.297c-2.005,0-4.009-0.762-5.544-2.297c-3.049-3.059-3.049-8.019,0-11.078l109.986-109.975
		C266.9,185.879,266.65,195.829,260.417,202.063z"/>
	<path style="fill:#AA7F63;" d="M280.923,231.077l-3.352,3.352c0.418-0.418-99.273,99.409-99.273,99.409
		c-1.524,1.524-3.529,2.297-5.534,2.297c-2.005,0-4.009-0.773-5.534-2.297c-3.059-3.059-3.059-8.019,0-11.078l114.173-114.173
		C287.281,214.967,287.104,224.896,280.923,231.077z"/>
	<path style="fill:#AA7F63;" d="M302.337,259.195l-6.828,6.828c0.397-0.397-83.758,83.873-83.758,83.873
		c-1.524,1.535-3.529,2.297-5.534,2.297c-2.005,0-4.009-0.762-5.534-2.297c-3.059-3.049-3.059-8.008,0-11.067l101.925-101.925
		C308.572,243.158,308.477,253.057,302.337,259.195z"/>
</g>
<g>
</g>
<g>
</g>
<g>
</g>
<g>
</g>
<g>
</g>
<g>
</g>
<g>
</g>
<g>
</g>
<g>
</g>
<g>
</g>
<g>
</g>
<g>
</g>
<g>
</g>
<g>
</g>
<g>
</g>
</svg>
