<svg id="Flat" height="512" viewBox="0 0 512 512" width="512" xmlns="http://www.w3.org/2000/svg"><g><path d="m265.37 230.063a40.02 40.02 0 0 0 -17.37-58.735v-87.328a60 60 0 0 0 -60-60h-56a60 60 0 0 0 -60 60v87.328a40.02 40.02 0 0 0 -17.37 58.735 56.006 56.006 0 1 0 65.37 89.129 56 56 0 0 0 80 0 56 56 0 1 0 65.37-89.129z" fill="#fdbf67"/><path d="m34 488a10 10 0 0 1 -10-10v-145.2a20 20 0 0 1 11.619-18.16l76.381-26.64 16-8h64l16 8 76.381 26.637a20 20 0 0 1 11.619 18.163v155.2z" fill="#f553a3"/><path d="m72 400v32l176-72 32 40-208 88h-38a10 10 0 0 1 -10-10v-78z" fill="#f78ac8"/><path d="m232 440h16v48h-16z" fill="#f78ac8"/><path d="m208 288-5.574 5.574a60 60 0 0 1 -84.852 0l-5.574-5.574 24-64h48z" fill="#ffd4cf"/><path d="m191.617 244.313-7.617-20.313h-48l-7.667 20.445 15.511 7.755a36.178 36.178 0 0 0 16.1 3.8 36.186 36.186 0 0 0 16.264-3.883z" fill="#fbb8b0"/><path d="m244 120h-20.147a28 28 0 0 1 -24.009-13.594l-15.844-26.406-.7 1.16a80 80 0 0 1 -68.6 38.84h-38.7a20 20 0 0 0 -20 20v16a20 20 0 0 0 20 20h20v15.848a30 30 0 0 0 16.583 26.833l38.417 19.208a20 20 0 0 0 17.979-.046l38.575-19.534a30 30 0 0 0 16.446-26.764v-15.545h20a20 20 0 0 0 20-20v-16a20 20 0 0 0 -20-20z" fill="#ffd4cf"/><path d="m456 264h-8v-64h8a32 32 0 0 1 32 32 32 32 0 0 1 -32 32z" fill="#f553a3"/><path d="m352 200h-86a10 10 0 0 0 -10 10v44a10 10 0 0 0 10 10h14v80h26.579l21.421-79.8v-.2h24l8-8v-48z" fill="#f78ac8"/><path d="m323.377 328h-27.377v-2.279a29.728 29.728 0 0 0 -29.823-29.728l-2.177.007v41.6l-16 22.4 32 40h43.377a20.623 20.623 0 0 0 20.623-20.623v-30.754a20.623 20.623 0 0 0 -20.623-20.623z" fill="#ffd4cf"/><path d="m414.072 392.053a39.925 39.925 0 0 0 5.294 12.772 40.02 40.02 0 0 0 38.834-61.179 40.019 40.019 0 0 0 -44.123 48.407z" fill="#fdbf67"/><path d="m400 400a24 24 0 0 1 48 0 24 24 0 0 1 0 48 24 24 0 0 1 -48 0 24 24 0 0 1 0-48z" fill="#f78ac8"/><g><g fill="#ae7069"><path d="m120 144h16v16h-16z"/><path d="m184 144h16v16h-16z"/><path d="m160 212c13.458 0 24-8.785 24-20h-16c0 1.41-3.037 4-8 4s-8-2.59-8-4h-16c0 11.215 10.542 20 24 20z"/></g><path d="m280 224h48v16h-48z" fill="#f553a3"/><path d="m331.27 100.281a31.8 31.8 0 0 0 8.512-1.158l12.506 21.661-13.857 8 8 13.856 13.857-8 8 13.857 13.856-8-8-13.857 13.856-8-8-13.856-13.856 8-12.507-21.661a32.014 32.014 0 1 0 -22.367 9.158zm-8.054-45.85a15.9 15.9 0 0 1 7.973-2.151 16.094 16.094 0 0 1 4.167.552 16 16 0 1 1 -12.14 1.6z" fill="#f553a3"/><path d="m416 416h16v16h-16z" fill="#f553a3"/></g><path d="m456 304-104-40v-64l104-40z" fill="#f553a3"/><path d="m456 160-32 12.308v119.384l32 12.308z" fill="#f78ac8"/></g></svg>