<svg id="Layer_1" enable-background="new 0 0 512 512" height="512" viewBox="0 0 512 512" width="512" xmlns="http://www.w3.org/2000/svg"><g><path d="m447.196 109.288h-3.921l-1.768-1.694h-10.431v34.777l3.043 1.597h13.075c9.097 0 16.471-7.764 16.471-17.34.002-9.576-7.372-17.34-16.469-17.34z" fill="#ffcebe"/><path d="m320.776 109.29c-9.083.016-16.443 7.772-16.443 17.339 0 9.577 7.374 17.34 16.471 17.34h13.076l2.126-3.924v-32.451h-12.196z" fill="#ffcebe"/><path d="m448.27 109.346c-.357-.024-.711-.057-1.073-.057h-3.921l-1.768-1.694h-10.431v34.777l3.043 1.597h13.075c.362 0 .717-.033 1.073-.057v-34.566z" fill="#ffb1a0"/><path d="m321.525 126.629c0-8.866 6.324-16.165 14.48-17.201v-1.833h-12.195l-3.034 1.695c-9.083.016-16.443 7.772-16.443 17.339 0 9.577 7.374 17.34 16.471 17.34h13.076l.268-.495c-7.237-1.828-12.623-8.666-12.623-16.845z" fill="#ffb1a0"/><path d="m484.907 236.056c-2.329-.902-33.278-12.888-53.278-20.633l-4.114 1.972h-87.479l-3.711-2.128-53.231 20.79c-11.584 4.766-27.094 19.766-27.094 42.024v50.144h41.745v48.679h172.51v-48.679h41.745c0-24.3 0-46.328 0-50.144 0-19.169-12.273-35.925-27.093-42.025z" fill="#ff7f87"/><path d="m291.049 259.889c0-15.693 8.359-26.549 17.118-33.626l-25.073 9.792c-11.584 4.768-27.094 19.768-27.094 42.026v50.144h35.049c0-28.299 0-55.451 0-68.336z" fill="#ff636e"/><path d="m470.255 327.194v49.709h32.716c4.987 0 9.029-4.043 9.029-9.029 0-4.264 0-8.808 0-40.68z" fill="#ffcebe"/><path d="m414.903 208.945c-1.92-.742-3.196-2.59-3.201-4.659l-.014-16.466-3.403-3.477h-48.933l-3.083 3.403v16.51c0 2.063-.992 3.279-2.134 4.055l-17.809 6.956c6.235 19.134 24.017 34.098 48.39 34.098 21.842 0 40.407-14.253 46.914-33.942-8.949-3.466-15.708-6.084-16.727-6.478z" fill="#ffcebe"/><path d="m383.977 184.343h-24.626l-3.083 3.403v16.51c0 2.063-.992 3.279-2.134 4.055l-17.809 6.956c6.172 18.94 23.66 33.784 47.652 34.084z" fill="#ffb1a0"/><path d="m305.471 376.903v-94.03c0-4.267-3.459-7.726-7.726-7.726s-7.726 3.459-7.726 7.726v94.03z" fill="#ff636e"/><path d="m477.982 376.903v-94.03c0-4.267-3.459-7.726-7.726-7.726s-7.726 3.459-7.726 7.726v94.03z" fill="#ff636e"/><path d="m431.629 105.019-4.114-2.747-3.091-13.392h-6.009l-25.068 18.2h-22.203l-1.87 3.019v36.246c0 20.16 12.063 38.976 31.691 46.762 19.281-6.737 33.156-25.097 33.156-46.646v-35.824z" fill="#ffdecf"/><g><path d="m370.014 146.459v-35.432l2.446-3.948h-36.135l-2.446 3.948v35.432c0 25.821 20.232 49.405 50.836 49.405 6.163 0 12.062-1.144 17.508-3.215-19.915-7.299-32.209-26.063-32.209-46.19z" fill="#ffcebe"/></g><path d="m430.911 45.993c-4.72.363-9.052-2.605-9.961-7.252-1.53-7.825-5.405-15.591-20.538-15.591h-52.507c-19.27 0-34.892 15.622-34.892 34.892v38.294c0 8.114 6.578 14.691 14.691 14.691h59.593c13.329 0 24.906-7.478 30.78-18.464.455-.852 1.748-.519 1.748.447 0 9.91 8.108 18.018 18.018 18.018 5.194 0 9.444-4.25 9.444-9.444v-39.962c.001-9.414-8.213-16.257-16.376-15.629z" fill="#365e7d"/><g><path d="m342.631 96.336v-38.293c0-19.271 15.622-34.892 34.892-34.892h-29.618c-19.27 0-34.892 15.622-34.892 34.892v38.294c0 8.114 6.578 14.691 14.692 14.691h29.618c-8.114 0-14.692-6.578-14.692-14.692z" fill="#2b4d66"/></g><path d="m191.196 109.288h-3.921l-1.768-1.694h-10.431v34.777l3.044 1.597h13.075c9.097 0 16.471-7.764 16.471-17.34.001-9.576-7.373-17.34-16.47-17.34z" fill="#ffcebe"/><path d="m64.776 109.29c-9.083.016-16.443 7.772-16.443 17.339 0 9.577 7.374 17.34 16.471 17.34h13.076l2.126-3.924v-32.451h-12.196z" fill="#ffcebe"/><path d="m192.27 109.346c-.357-.024-.711-.057-1.073-.057h-3.921l-1.768-1.694h-10.431v34.777l3.044 1.597h13.075c.362 0 .717-.033 1.073-.057v-34.566z" fill="#ffb1a0"/><path d="m65.525 126.629c0-8.866 6.324-16.165 14.48-17.201v-1.833h-12.195l-3.034 1.695c-9.083.016-16.443 7.772-16.443 17.339 0 9.577 7.374 17.34 16.471 17.34h13.076l.268-.495c-7.237-1.828-12.623-8.666-12.623-16.845z" fill="#ffb1a0"/><path d="m228.907 236.056c-2.329-.902-33.278-12.888-53.278-20.633l-4.114 1.972h-87.48l-3.711-2.128-53.231 20.79c-11.582 4.766-27.093 19.766-27.093 42.024v50.144h41.745v48.679h172.51v-48.679h41.745c0-24.3 0-46.328 0-50.144 0-19.169-12.272-35.925-27.093-42.025z" fill="#b3e59f"/><path d="m35.049 259.889c0-15.693 8.359-26.549 17.118-33.626l-25.073 9.792c-11.583 4.768-27.094 19.768-27.094 42.026v50.144h35.049c0-28.299 0-55.451 0-68.336z" fill="#95d6a4"/><path d="m41.745 327.194h-41.745v40.68c0 4.986 4.043 9.029 9.029 9.029h32.716z" fill="#ffb1a0"/><path d="m158.903 208.945c-1.92-.742-3.196-2.59-3.201-4.659l-.014-16.466-3.403-3.477h-48.933l-3.083 3.403v16.51c0 2.063-.992 3.279-2.134 4.055l-17.809 6.956c6.235 19.134 24.017 34.098 48.39 34.098 21.842 0 40.407-14.253 46.914-33.942-8.949-3.466-15.708-6.084-16.727-6.478z" fill="#ffcebe"/><path d="m127.977 184.343h-24.626l-3.083 3.403v16.51c0 2.063-.992 3.279-2.134 4.055l-17.809 6.956c6.172 18.94 23.66 33.784 47.652 34.084z" fill="#ffb1a0"/><path d="m49.471 376.903v-94.03c0-4.267-3.459-7.726-7.726-7.726s-7.726 3.459-7.726 7.726v94.03z" fill="#95d6a4"/><path d="m175.629 105.019-4.114-2.747-3.091-13.392h-6.009l-25.068 18.2h-22.203l-1.87 3.019v36.246c0 20.16 12.063 38.976 31.691 46.762 19.281-6.737 33.156-25.097 33.156-46.646v-35.824z" fill="#ffdecf"/><g><path d="m114.014 146.459v-35.432l2.446-3.948h-36.135l-2.446 3.948v35.432c0 25.821 20.232 49.405 50.836 49.405 6.163 0 12.062-1.144 17.508-3.215-19.915-7.299-32.209-26.063-32.209-46.19z" fill="#ffcebe"/></g><path d="m174.911 45.993c-4.72.363-9.052-2.605-9.961-7.252-1.53-7.825-5.405-15.591-20.538-15.591h-52.506c-19.27 0-34.892 15.622-34.892 34.892v38.294c0 8.114 6.578 14.691 14.691 14.691h59.593c13.329 0 24.906-7.478 30.78-18.464.455-.852 1.748-.519 1.748.447 0 9.91 8.108 18.018 18.018 18.018 5.194 0 9.444-4.25 9.444-9.444v-39.962c0-9.414-8.213-16.257-16.377-15.629z" fill="#365e7d"/><g><path d="m86.631 96.336v-38.293c0-19.271 15.622-34.892 34.892-34.892h-29.617c-19.27 0-34.892 15.622-34.892 34.892v38.294c0 8.114 6.578 14.691 14.692 14.691h29.618c-8.115 0-14.693-6.578-14.693-14.692z" fill="#2b4d66"/></g><g><path d="m319.196 221.235h-3.921l-1.768-1.694h-10.431v34.777l3.044 1.597h13.075c9.097 0 16.471-7.764 16.471-17.34.001-9.577-7.373-17.34-16.47-17.34z" fill="#ffcebe"/><path d="m192.776 221.236c-9.083.016-16.443 7.772-16.443 17.339 0 9.577 7.374 17.34 16.471 17.34h13.076l2.126-3.924v-32.451h-12.196z" fill="#ffcebe"/><path d="m320.27 221.292c-.357-.024-.711-.057-1.073-.057h-3.921l-1.768-1.694h-10.431v34.777l3.044 1.597h13.075c.362 0 .717-.033 1.073-.057v-34.566z" fill="#ffb1a0"/><path d="m193.525 238.575c0-8.866 6.324-16.165 14.48-17.201v-1.833h-12.195l-3.034 1.695c-9.083.016-16.443 7.772-16.443 17.339 0 9.577 7.374 17.34 16.471 17.34h13.076l.268-.495c-7.237-1.827-12.623-8.666-12.623-16.845z" fill="#ffb1a0"/><path d="m356.907 348.002c-2.329-.902-33.278-12.888-53.278-20.633l-4.114 1.972h-87.479l-3.71-2.128-53.231 20.79c-11.584 4.766-27.095 19.766-27.095 42.024v50.144h41.745v48.679h172.51v-48.679h41.745c0-24.3 0-46.328 0-50.144 0-19.169-12.272-35.925-27.093-42.025z" fill="#80b4fb"/><path d="m163.049 371.835c0-15.693 8.359-26.549 17.118-33.626l-25.073 9.792c-11.583 4.768-27.094 19.768-27.094 42.026v50.144h35.049c0-28.299 0-55.451 0-68.336z" fill="#61a2f9"/><path d="m169.745 439.141h-41.745v40.68c0 4.986 4.043 9.029 9.029 9.029h32.716z" fill="#ffb1a0"/><path d="m342.255 439.141v49.709h32.716c4.987 0 9.029-4.042 9.029-9.029 0-4.264 0-8.808 0-40.68z" fill="#ffcebe"/><path d="m286.903 320.891c-1.92-.742-3.196-2.59-3.201-4.659l-.014-16.466-3.403-3.477h-48.933l-3.083 3.403v16.51c0 2.063-.992 3.279-2.134 4.055l-17.809 6.956c6.235 19.134 24.017 34.098 48.39 34.098 21.842 0 40.407-14.253 46.914-33.942-8.949-3.466-15.708-6.083-16.727-6.478z" fill="#ffcebe"/><path d="m255.977 296.289h-24.626l-3.083 3.403v16.51c0 2.063-.992 3.279-2.134 4.055l-17.809 6.956c6.172 18.94 23.66 33.784 47.652 34.084z" fill="#ffb1a0"/><path d="m177.471 488.85v-94.03c0-4.267-3.459-7.726-7.726-7.726s-7.726 3.459-7.726 7.726v94.03z" fill="#61a2f9"/><path d="m349.982 488.85v-94.03c0-4.267-3.459-7.726-7.726-7.726s-7.726 3.459-7.726 7.726v94.03z" fill="#61a2f9"/><path d="m303.629 216.966-4.114-2.747-3.091-13.392h-6.009l-25.068 18.2h-22.203l-1.87 3.019v36.246c0 20.16 12.063 38.976 31.691 46.762 19.281-6.737 33.156-25.097 33.156-46.646v-35.824z" fill="#ffdecf"/><g><path d="m242.014 258.406v-35.432l2.446-3.948h-36.135l-2.446 3.948v35.432c0 25.821 20.232 49.405 50.836 49.405 6.163 0 12.062-1.144 17.508-3.215-19.915-7.3-32.209-26.064-32.209-46.19z" fill="#ffcebe"/></g><path d="m302.911 157.939c-4.72.363-9.052-2.605-9.961-7.252-1.53-7.825-5.405-15.591-20.538-15.591h-52.507c-19.27 0-34.892 15.622-34.892 34.892v38.294c0 8.114 6.578 14.691 14.691 14.691h59.593c13.329 0 24.906-7.478 30.78-18.464.455-.852 1.748-.519 1.748.447 0 9.91 8.108 18.018 18.018 18.018 5.194 0 9.444-4.25 9.444-9.444v-39.961c.001-9.415-8.212-16.258-16.376-15.63z" fill="#365e7d"/><g><path d="m214.631 208.282v-38.294c0-19.271 15.622-34.892 34.892-34.892h-29.618c-19.27 0-34.892 15.622-34.892 34.892v38.294c0 8.114 6.578 14.691 14.692 14.691h29.618c-8.114.001-14.692-6.577-14.692-14.691z" fill="#2b4d66"/></g></g></g></svg>